<?xml version="1.0" standalone="no"?>
<!DOCTYPE svg PUBLIC "-//W3C//DTD SVG 20010904//EN"
 "http://www.w3.org/TR/2001/REC-SVG-20010904/DTD/svg10.dtd">
<svg version="1.0" xmlns="http://www.w3.org/2000/svg"
 width="195.000000pt" height="56.000000pt" viewBox="0 0 195.000000 56.000000"
 preserveAspectRatio="xMidYMid meet">

<g transform="translate(0.000000,56.000000) scale(0.100000,-0.100000)"
fill="#000000" stroke="none">
<path d="M585 280 c-3 -5 -1 -10 4 -10 6 0 11 5 11 10 0 6 -2 10 -4 10 -3 0
-8 -4 -11 -10z"/>
<path d="M1070 255 c0 -10 -10 -15 -29 -15 -53 0 -61 -8 -61 -60 0 -54 7 -60
71 -60 l39 0 0 75 c0 43 -4 75 -10 75 -5 0 -10 -7 -10 -15z m0 -70 c0 -33 -2
-35 -35 -35 -33 0 -35 2 -35 35 0 33 2 35 35 35 33 0 35 -2 35 -35z"/>
<path d="M1120 260 c0 -5 5 -10 10 -10 6 0 10 5 10 10 0 6 -4 10 -10 10 -5 0
-10 -4 -10 -10z"/>
<path d="M680 190 c0 -40 4 -70 10 -70 6 0 10 11 10 25 0 21 5 25 30 25 20 0
35 -8 46 -25 9 -14 23 -25 32 -25 13 0 12 3 -3 20 -17 19 -17 21 -1 39 10 11
16 31 14 48 -3 27 -5 28 -70 31 l-68 3 0 -71z m118 28 c-3 -20 -10 -23 -50
-26 -46 -3 -48 -2 -48 22 0 24 3 26 51 26 47 0 50 -2 47 -22z"/>
<path d="M1350 195 l0 -65 70 0 c40 0 70 4 70 10 0 6 -27 10 -60 10 l-60 0 0
55 c0 30 -4 55 -10 55 -6 0 -10 -28 -10 -65z"/>
<path d="M1510 195 c0 -37 4 -65 10 -65 6 0 10 28 10 65 0 37 -4 65 -10 65 -6
0 -10 -28 -10 -65z"/>
<path d="M840 231 c0 -6 21 -11 47 -13 66 -4 70 -28 4 -28 -47 0 -51 -2 -51
-23 0 -35 19 -47 72 -47 l48 0 0 48 c0 26 -5 53 -12 60 -14 14 -108 16 -108 3z
m100 -71 c0 -5 -18 -10 -40 -10 -22 0 -40 5 -40 10 0 6 18 10 40 10 22 0 40
-4 40 -10z"/>
<path d="M1120 180 c0 -33 4 -60 10 -60 6 0 10 27 10 60 0 33 -4 60 -10 60 -6
0 -10 -27 -10 -60z"/>
<path d="M1172 228 c-7 -7 -12 -28 -12 -48 0 -44 15 -60 56 -60 55 0 81 49 54
101 -12 22 -78 27 -98 7z m78 -43 c0 -33 -2 -35 -35 -35 -33 0 -35 2 -35 35 0
33 2 35 35 35 33 0 35 -2 35 -35z"/>
<path d="M1550 235 c0 -15 57 -105 66 -105 10 0 64 88 64 104 0 14 -19 5 -24
-11 -4 -10 -15 -29 -25 -42 l-19 -25 -21 42 c-12 23 -26 42 -31 42 -6 0 -10
-2 -10 -5z"/>
<path d="M1712 232 c-9 -6 -12 -25 -10 -53 l3 -44 53 -3 c31 -2 52 1 52 7 0 6
-20 11 -45 11 -25 0 -45 5 -45 10 0 6 21 10 46 10 45 0 45 0 42 33 -3 30 -6
32 -43 35 -22 1 -46 -2 -53 -6z m78 -27 c0 -10 -11 -15 -35 -15 -24 0 -35 5
-35 15 0 10 11 15 35 15 24 0 35 -5 35 -15z"/>
<path d="M1842 228 c-13 -13 -16 -56 -6 -82 4 -12 20 -16 55 -16 27 0 49 5 49
10 0 6 -20 10 -45 10 -25 0 -45 5 -45 10 0 6 21 10 46 10 45 0 45 0 42 33 -3
30 -6 32 -43 35 -23 2 -46 -3 -53 -10z m78 -23 c0 -10 -11 -15 -35 -15 -33 0
-43 8 -28 23 13 14 63 7 63 -8z"/>
</g>
</svg>
